<svg width="313.7186767578125px" height="88.39999999999999px" xmlns="http://www.w3.org/2000/svg" viewBox="93.14066162109376 30.800000000000004 313.7186767578125 88.39999999999999" style="background: rgba(0, 0, 0, 0);" preserveAspectRatio="xMidYMid"><defs><filter id="editing-hole" x="-100%" y="-100%" width="300%" height="300%"><feFlood flood-color="#000000" result="black"></feFlood><feMorphology operator="dilate" radius="2" in="SourceGraphic" result="erode"></feMorphology><feGaussianBlur in="erode" stdDeviation="4" result="blur"></feGaussianBlur><feOffset in="blur" dx="2" dy="2" result="offset"></feOffset><feComposite operator="atop" in="offset" in2="black" result="merge"></feComposite><feComposite operator="in" in="merge" in2="SourceGraphic" result="inner-shadow"></feComposite></filter></defs><g filter="url(#editing-hole)"><g transform="translate(142.09498596191406, 91.3700008392334)"><path d="M11.86 0.48L11.86 0.48Q6.05 0.48 2.50-3.31L2.50-3.31L4.22-6.34L4.42-6.77L4.75-6.58L4.75-6.58Q4.80-6.43 4.87-6.10L4.87-6.10L4.87-6.10Q4.94-5.76 5.11-5.45L5.11-5.45L5.11-5.45Q5.28-5.14 5.66-4.85L5.66-4.85L5.66-4.85Q8.35-2.54 12.34-2.54L12.34-2.54L12.34-2.54Q14.98-2.54 16.75-4.03L16.75-4.03L16.75-4.03Q18.53-5.52 18.53-7.68L18.53-7.68L18.53-7.68Q18.53-9.07 17.98-10.01L17.98-10.01L17.98-10.01Q17.42-10.94 15.98-11.86L15.98-11.86L15.98-11.86Q14.54-12.77 11.66-14.02L11.66-14.02L11.66-14.02Q7.25-15.74 5.35-17.95L5.35-17.95L5.35-17.95Q3.46-20.16 3.46-22.90L3.46-22.90L3.46-22.90Q3.46-26.26 5.90-28.27L5.90-28.27L5.90-28.27Q8.35-30.29 12.58-30.29L12.58-30.29L12.58-30.29Q15.02-30.29 17.16-29.30L17.16-29.30L17.16-29.30Q19.30-28.32 20.88-26.54L20.88-26.54L18.72-23.66L18.43-23.86L18.43-23.86Q18.43-23.95 18.36-24.29L18.36-24.29L18.36-24.29Q18.29-24.62 18.10-24.94L18.10-24.94L18.10-24.94Q17.90-25.25 17.57-25.58L17.57-25.58L17.57-25.58Q16.46-26.64 15.17-27.07L15.17-27.07L15.17-27.07Q13.87-27.50 12.05-27.50L12.05-27.50L12.05-27.50Q9.74-27.50 8.33-26.23L8.33-26.23L8.33-26.23Q6.91-24.96 6.91-23.14L6.91-23.14L6.91-23.14Q6.91-21.74 7.51-20.71L7.51-20.71L7.51-20.71Q8.11-19.68 9.70-18.70L9.70-18.70L9.70-18.70Q11.28-17.71 14.30-16.51L14.30-16.51L14.30-16.51Q18.58-14.74 20.21-12.86L20.21-12.86L20.21-12.86Q21.84-10.99 21.84-8.16L21.84-8.16L21.84-8.16Q21.84-5.95 20.76-3.98L20.76-3.98L20.76-3.98Q19.68-2.02 17.42-0.77L17.42-0.77L17.42-0.77Q15.17 0.48 11.86 0.48L11.86 0.48ZM36 0.38L36 0.38Q33.07 0.38 30.77-1.06L30.77-1.06L30.77-1.06Q28.46-2.50 27.17-5.09L27.17-5.09L27.17-5.09Q25.87-7.68 25.87-10.99L25.87-10.99L25.87-10.99Q25.87-14.30 27.17-16.90L27.17-16.90L27.17-16.90Q28.46-19.49 30.77-20.95L30.77-20.95L30.77-20.95Q33.07-22.42 36-22.42L36-22.42L36-22.42Q38.93-22.42 41.23-20.95L41.23-20.95L41.23-20.95Q43.54-19.49 44.83-16.90L44.83-16.90L44.83-16.90Q46.13-14.30 46.13-10.99L46.13-10.99L46.13-10.99Q46.13-7.68 44.83-5.09L44.83-5.09L44.83-5.09Q43.54-2.50 41.23-1.06L41.23-1.06L41.23-1.06Q38.93 0.38 36 0.38L36 0.38ZM36-2.50L36-2.50Q37.87-2.50 39.34-3.60L39.34-3.60L39.34-3.60Q40.80-4.70 41.64-6.65L41.64-6.65L41.64-6.65Q42.48-8.59 42.48-11.04L42.48-11.04L42.48-11.04Q42.48-14.78 40.66-17.16L40.66-17.16L40.66-17.16Q38.83-19.54 36-19.54L36-19.54L36-19.54Q33.17-19.54 31.34-17.16L31.34-17.16L31.34-17.16Q29.52-14.78 29.52-11.04L29.52-11.04L29.52-11.04Q29.52-8.59 30.36-6.65L30.36-6.65L30.36-6.65Q31.20-4.70 32.66-3.60L32.66-3.60L32.66-3.60Q34.13-2.50 36-2.50L36-2.50ZM58.61 0.53L58.61 0.53Q55.15 0.53 53.09-2.04L53.09-2.04L53.09-2.04Q51.02-4.61 51.07-9.70L51.07-9.70L51.12-21.94L54.48-21.94L54.48-9.70L54.48-9.70Q54.48-5.76 55.85-4.01L55.85-4.01L55.85-4.01Q57.22-2.26 59.47-2.26L59.47-2.26L59.47-2.26Q61.97-2.26 63.67-4.20L63.67-4.20L63.67-4.20Q65.38-6.14 65.38-9.84L65.38-9.84L65.38-21.94L68.74-21.94L68.74-3.41L68.74-3.41Q68.74-2.26 68.81-1.51L68.81-1.51L68.81-1.51Q68.88-0.77 69.22 0L69.22 0L65.90 0L65.90 0Q65.57-0.72 65.50-1.49L65.50-1.49L65.50-1.49Q65.42-2.26 65.42-3.36L65.42-3.36L65.42-3.36Q64.37-1.54 62.57-0.50L62.57-0.50L62.57-0.50Q60.77 0.53 58.61 0.53L58.61 0.53ZM75.79 0L75.79-2.78L82.27-2.78L82.27-29.14L76.08-29.14L76.08-31.92L85.78-31.92L85.78-2.78L92.21-2.78L92.21 0L75.79 0ZM123.17 0L123.17-29.90L127.10-29.90L127.10-29.57L127.10-29.57Q126.82-29.28 126.74-28.94L126.74-28.94L126.74-28.94Q126.67-28.61 126.67-27.79L126.67-27.79L126.67-2.88L141.07-2.88L141.07 0L123.17 0ZM148.80 0L148.80-2.78L154.42-2.78L154.42-19.15L149.09-19.15L149.09-21.94L157.87-21.94L157.87-2.78L163.01-2.78L163.01 0L148.80 0ZM155.95-26.54L155.95-26.54Q154.94-26.54 154.22-27.26L154.22-27.26L154.22-27.26Q153.50-27.98 153.50-28.99L153.50-28.99L153.50-28.99Q153.50-30.05 154.20-30.77L154.20-30.77L154.20-30.77Q154.90-31.49 155.95-31.49L155.95-31.49L155.95-31.49Q156.96-31.49 157.70-30.74L157.70-30.74L157.70-30.74Q158.45-30 158.45-28.99L158.45-28.99L158.45-28.99Q158.45-27.98 157.70-27.26L157.70-27.26L157.70-27.26Q156.96-26.54 155.95-26.54L155.95-26.54ZM175.78 0L175.78-19.20L171.02-19.20L171.02-21.94L175.78-21.94L175.78-23.76L175.78-23.76Q175.78-27.98 177.96-30.10L177.96-30.10L177.96-30.10Q180.14-32.21 183.84-32.21L183.84-32.21L183.84-32.21Q185.95-32.21 187.75-31.44L187.75-31.44L187.75-31.44Q189.55-30.67 190.70-29.18L190.70-29.18L188.88-26.64L188.59-26.26L188.30-26.45L188.30-26.45Q188.30-26.54 188.23-26.86L188.23-26.86L188.23-26.86Q188.16-27.17 187.97-27.50L187.97-27.50L187.97-27.50Q187.78-27.84 187.39-28.18L187.39-28.18L187.39-28.18Q186.67-28.85 185.90-29.14L185.90-29.14L185.90-29.14Q185.14-29.42 183.94-29.42L183.94-29.42L183.94-29.42Q181.68-29.42 180.38-28.08L180.38-28.08L180.38-28.08Q179.09-26.74 179.09-23.76L179.09-23.76L179.09-21.94L186.29-21.94L186.29-19.20L179.09-19.20L179.09 0L175.78 0ZM212.26-4.75L213.31-2.02L213.31-2.02Q210.14 0.34 206.35 0.34L206.35 0.34L206.35 0.34Q202.70 0.34 201.19-1.87L201.19-1.87L201.19-1.87Q199.68-4.08 199.68-9.07L199.68-9.07L199.68-9.07Q199.68-9.89 199.78-11.90L199.78-11.90L200.21-19.10L195.36-19.10L195.36-21.94L200.40-21.94L200.74-27.79L204.58-28.42L205.06-28.46L205.10-28.18L205.10-28.18Q204.77-27.70 204.60-27.36L204.60-27.36L204.60-27.36Q204.43-27.02 204.38-26.30L204.38-26.30L203.86-21.94L211.15-21.94L211.15-19.10L203.66-19.10L203.23-11.66L203.23-11.66Q203.14-9.74 203.14-9.12L203.14-9.12L203.14-9.12Q203.14-5.28 204.02-3.91L204.02-3.91L204.02-3.91Q204.91-2.54 206.88-2.54L206.88-2.54L206.88-2.54Q208.32-2.54 209.52-3.07L209.52-3.07L209.52-3.07Q210.72-3.60 212.26-4.75L212.26-4.75Z" fill="#000000"></path></g></g><style>text {
  font-size: 64px;
  font-family: Arial Black;
  dominant-baseline: central;
  text-anchor: middle;
}</style></svg>